<svg width="32" height="30" viewBox="0 0 32 30" fill="none" xmlns="http://www.w3.org/2000/svg">
<path d="M9 28C9.55228 28 10 27.5523 10 27C10 26.4477 9.55228 26 9 26C8.44772 26 8 26.4477 8 27C8 27.5523 8.44772 28 9 28Z" stroke="black" stroke-width="2" stroke-linecap="round" stroke-linejoin="round"/>
<path d="M20 28C20.5523 28 21 27.5523 21 27C21 26.4477 20.5523 26 20 26C19.4477 26 19 26.4477 19 27C19 27.5523 19.4477 28 20 28Z" stroke="black" stroke-width="2" stroke-linecap="round" stroke-linejoin="round"/>
<path d="M1 7H5L7.68 20.39C7.77144 20.8504 8.02191 21.264 8.38755 21.5583C8.75318 21.8526 9.2107 22.009 9.68 22H19.4C19.8693 22.009 20.3268 21.8526 20.6925 21.5583C21.0581 21.264 21.3086 20.8504 21.4 20.39L23 12H6" stroke="black" stroke-width="2" stroke-linecap="round" stroke-linejoin="round"/>
<circle cx="24" cy="8" r="8" fill="#F24810"/>
<path d="M24.236 3.516C25.428 3.516 26.344 3.884 26.984 4.62C27.632 5.356 27.956 6.412 27.956 7.788C27.956 9.164 27.632 10.224 26.984 10.968C26.344 11.704 25.428 12.072 24.236 12.072C23.028 12.072 22.1 11.704 21.452 10.968C20.812 10.224 20.492 9.164 20.492 7.788C20.492 6.412 20.812 5.356 21.452 4.62C22.1 3.884 23.028 3.516 24.236 3.516ZM24.236 5.148C23.708 5.148 23.328 5.356 23.096 5.772C22.864 6.18 22.748 6.852 22.748 7.788C22.748 8.732 22.864 9.412 23.096 9.828C23.328 10.236 23.708 10.44 24.236 10.44C24.748 10.44 25.12 10.232 25.352 9.816C25.592 9.4 25.712 8.724 25.712 7.788C25.712 6.852 25.592 6.18 25.352 5.772C25.12 5.356 24.748 5.148 24.236 5.148Z" fill="white"/>
</svg>
