<svg width="24" height="24" viewBox="0 0 24 24" fill="none" xmlns="http://www.w3.org/2000/svg">
<g clip-path="url(#clip0_28545_111)">
<path d="M11.3 18V17.5H10.8H1.8C1.45522 17.5 1.12456 17.363 0.880761 17.1192C0.636964 16.8754 0.5 16.5448 0.5 16.2V4.2C0.5 3.85522 0.636964 3.52456 0.880761 3.28076C1.12456 3.03697 1.45522 2.9 1.8 2.9H21.7H22.2C22.5448 2.9 22.8754 3.03697 23.1192 3.28076C23.363 3.52456 23.5 3.85522 23.5 4.2V16.2C23.5 16.5448 23.363 16.8754 23.1192 17.1192C22.8754 17.363 22.5448 17.5 22.2 17.5H13.2H12.7V18V19.2V19.7H13.2H19.8C19.8265 19.7 19.852 19.7105 19.8707 19.7293C19.8895 19.748 19.9 19.7735 19.9 19.8V21C19.9 21.0265 19.8895 21.052 19.8707 21.0707C19.852 21.0895 19.8265 21.1 19.8 21.1H4.2C4.17348 21.1 4.14804 21.0895 4.12929 21.0707C4.11054 21.052 4.1 21.0265 4.1 21V19.8C4.1 19.7735 4.11054 19.748 4.12929 19.7293C4.14804 19.7105 4.17348 19.7 4.2 19.7H10.8H11.3V19.2V18ZM21.6 16.1H22.1V15.6V4.8V4.3H21.6H2.4H1.9V4.8V15.6V16.1H2.4H21.6Z" stroke="black"/>
</g>
<defs>
<clipPath id="clip0_28545_111">
<rect width="24" height="24" fill="white"/>
</clipPath>
</defs>
</svg>
