<svg width="24" height="24" viewBox="0 0 24 24" fill="none" xmlns="http://www.w3.org/2000/svg">
<g clip-path="url(#clip0_28545_116)">
<path d="M5.99993 6.5H6H18.0025C18.0025 6.5 18.0026 6.5 18.0026 6.5C18.9093 6.50029 19.8019 6.72473 20.6009 7.15335C21.3999 7.58199 22.0805 8.20153 22.5822 8.95682C23.0839 9.71211 23.3911 10.5797 23.4765 11.4824C23.5618 12.3852 23.4226 13.295 23.0713 14.1309C22.72 14.9668 22.1675 15.7029 21.4629 16.2737C20.7583 16.8444 19.9236 17.2321 19.033 17.4023C18.1423 17.5724 17.2235 17.5198 16.3581 17.2489C15.4928 16.9781 14.7078 16.4975 14.0731 15.85L13.926 15.7H13.716H10.284H10.074L9.92693 15.85C9.29214 16.4976 8.50707 16.9782 7.64161 17.249C6.77615 17.5198 5.85716 17.5725 4.96645 17.4022C4.07574 17.2319 3.24095 16.844 2.5364 16.2731C1.83185 15.7022 1.2794 14.9659 0.928245 14.1298C0.577087 13.2937 0.438113 12.3837 0.523694 11.4809C0.609276 10.5782 0.916757 9.71053 1.41877 8.95532C1.92077 8.2001 2.60173 7.58073 3.40101 7.15235C4.20029 6.72397 5.09309 6.49987 5.99993 6.5ZM9.52176 10.8783L9.1682 11.2318L9.52176 10.8782C9.3436 10.7001 9.10196 10.6 8.85 10.6H7.4V9.15C7.4 8.89804 7.29991 8.65641 7.12176 8.47825C6.9436 8.30009 6.70196 8.2 6.45 8.2H5.55C5.29805 8.2 5.05641 8.30009 4.87825 8.47825C4.70009 8.65641 4.6 8.89804 4.6 9.15V10.6H3.15C2.89805 10.6 2.65641 10.7001 2.47825 10.8782C2.30009 11.0564 2.2 11.298 2.2 11.55V12.45C2.2 12.702 2.30009 12.9436 2.47825 13.1218C2.65641 13.2999 2.89805 13.4 3.15 13.4H4.6V14.85C4.6 15.102 4.70009 15.3436 4.87825 15.5218C5.05641 15.6999 5.29805 15.8 5.55 15.8H6.45C6.70196 15.8 6.9436 15.6999 7.12176 15.5218C7.29991 15.3436 7.4 15.102 7.4 14.85V13.4H8.85C9.10196 13.4 9.3436 13.2999 9.52176 13.1218L9.1682 12.7682L9.52176 13.1218C9.69991 12.9436 9.8 12.702 9.8 12.45V11.55C9.8 11.298 9.69991 11.0564 9.52176 10.8783ZM15.5522 14.5654L15.9777 14.3891L15.5522 14.5654C15.7036 14.9308 15.96 15.2432 16.2889 15.4629C16.6178 15.6827 17.0044 15.8 17.4 15.8C17.9304 15.8 18.4391 15.5893 18.8142 15.2142C19.1893 14.8391 19.4 14.3304 19.4 13.8C19.4 13.4044 19.2827 13.0178 19.0629 12.6889C18.8432 12.36 18.5308 12.1036 18.1654 11.9522C17.7999 11.8009 17.3978 11.7613 17.0098 11.8384C16.6219 11.9156 16.2655 12.1061 15.9858 12.3858C15.7061 12.6655 15.5156 13.0219 15.4384 13.4098C15.3613 13.7978 15.4009 14.1999 15.5522 14.5654ZM18.3858 8.78579L18.7393 9.13934L18.3858 8.78579C18.1061 9.06549 17.9156 9.42186 17.8384 9.80982C17.7613 10.1978 17.8009 10.5999 17.9522 10.9654C18.1036 11.3308 18.36 11.6432 18.6889 11.8629C19.0178 12.0827 19.4044 12.2 19.8 12.2C20.3304 12.2 20.8391 11.9893 21.2142 11.6142C21.5893 11.2391 21.8 10.7304 21.8 10.2C21.8 9.80444 21.6827 9.41776 21.4629 9.08886C21.2432 8.75996 20.9308 8.50362 20.5654 8.35224L20.374 8.81418L20.5654 8.35224C20.1999 8.20087 19.7978 8.16126 19.4098 8.23843C19.0219 8.3156 18.6655 8.50608 18.3858 8.78579Z" stroke="black"/>
</g>
<defs>
<clipPath id="clip0_28545_116">
<rect width="24" height="24" fill="white"/>
</clipPath>
</defs>
</svg>
