<svg width="129" height="29" viewBox="0 0 129 29" fill="none" xmlns="http://www.w3.org/2000/svg">
<path d="M16.464 23.288L14.46 21.284C13.756 21.908 12.956 22.396 12.06 22.748C11.172 23.1 10.232 23.276 9.24 23.276C8.096 23.276 7.024 23.052 6.024 22.604C5.024 22.148 4.144 21.524 3.384 20.732C2.624 19.932 2.028 19.004 1.596 17.948C1.172 16.892 0.96 15.764 0.96 14.564C0.96 13.364 1.172 12.24 1.596 11.192C2.028 10.136 2.624 9.208 3.384 8.408C4.144 7.608 5.024 6.984 6.024 6.536C7.024 6.08 8.096 5.852 9.24 5.852C10.384 5.852 11.452 6.08 12.444 6.536C13.444 6.984 14.324 7.608 15.084 8.408C15.844 9.208 16.436 10.136 16.86 11.192C17.292 12.24 17.508 13.364 17.508 14.564C17.508 15.62 17.34 16.616 17.004 17.552C16.668 18.488 16.204 19.332 15.612 20.084L17.652 22.1L16.464 23.288ZM9.24 21.596C9.968 21.596 10.68 21.464 11.376 21.2C12.08 20.936 12.7 20.56 13.236 20.072L10.752 17.588L11.94 16.388L14.376 18.836C14.848 18.236 15.208 17.568 15.456 16.832C15.704 16.096 15.828 15.34 15.828 14.564C15.828 13.596 15.656 12.688 15.312 11.84C14.968 10.992 14.492 10.244 13.884 9.596C13.284 8.948 12.584 8.444 11.784 8.084C10.992 7.716 10.144 7.532 9.24 7.532C8.32 7.532 7.46 7.72 6.66 8.096C5.868 8.464 5.168 8.976 4.56 9.632C3.96 10.28 3.488 11.028 3.144 11.876C2.808 12.716 2.64 13.612 2.64 14.564C2.64 15.532 2.812 16.44 3.156 17.288C3.5 18.136 3.976 18.884 4.584 19.532C5.192 20.18 5.892 20.688 6.684 21.056C7.484 21.416 8.336 21.596 9.24 21.596ZM26.4951 23.312C25.1511 23.312 23.9911 22.984 23.0151 22.328C22.0391 21.672 21.2871 20.792 20.7591 19.688C20.2391 18.576 19.9791 17.344 19.9791 15.992V6.2H21.6591V15.992C21.6591 17.016 21.8471 17.956 22.2231 18.812C22.5991 19.668 23.1471 20.352 23.8671 20.864C24.5871 21.376 25.4631 21.632 26.4951 21.632C27.5511 21.632 28.4351 21.376 29.1471 20.864C29.8671 20.344 30.4111 19.656 30.7791 18.8C31.1471 17.944 31.3311 17.008 31.3311 15.992V6.2H33.0111V15.992C33.0111 17.008 32.8591 17.96 32.5551 18.848C32.2591 19.728 31.8271 20.504 31.2591 21.176C30.6991 21.848 30.0151 22.372 29.2071 22.748C28.4071 23.124 27.5031 23.312 26.4951 23.312ZM36.1359 23V6.2H37.8159V23H36.1359ZM48.8254 23.312C47.6894 23.312 46.6214 23.088 45.6214 22.64C44.6214 22.184 43.7414 21.56 42.9814 20.768C42.2294 19.968 41.6374 19.04 41.2054 17.984C40.7814 16.928 40.5694 15.8 40.5694 14.6C40.5694 13.4 40.7814 12.272 41.2054 11.216C41.6374 10.16 42.2294 9.236 42.9814 8.444C43.7414 7.644 44.6214 7.02 45.6214 6.572C46.6214 6.116 47.6894 5.888 48.8254 5.888C50.1854 5.888 51.4374 6.204 52.5814 6.836C53.7254 7.468 54.6734 8.308 55.4254 9.356L53.9374 10.16C53.3454 9.368 52.5934 8.74 51.6814 8.276C50.7774 7.804 49.8254 7.568 48.8254 7.568C47.9054 7.568 47.0454 7.756 46.2454 8.132C45.4534 8.5 44.7574 9.008 44.1574 9.656C43.5574 10.304 43.0894 11.052 42.7534 11.9C42.4174 12.748 42.2494 13.648 42.2494 14.6C42.2494 15.568 42.4174 16.476 42.7534 17.324C43.0974 18.172 43.5694 18.92 44.1694 19.568C44.7774 20.216 45.4774 20.724 46.2694 21.092C47.0694 21.452 47.9214 21.632 48.8254 21.632C49.8654 21.632 50.8294 21.396 51.7174 20.924C52.6134 20.444 53.3534 19.82 53.9374 19.052L55.4254 19.856C54.6734 20.904 53.7254 21.744 52.5814 22.376C51.4374 23 50.1854 23.312 48.8254 23.312ZM68.6889 23H66.5169L61.0089 15.452L59.5809 17.168V23H57.9009V6.2H59.5809V14.552L66.5769 6.2H68.7729L62.1129 14.132L68.6889 23ZM82.3314 23.312C81.4354 23.312 80.5674 23.172 79.7274 22.892C78.8954 22.612 78.1674 22.212 77.5434 21.692C76.9194 21.172 76.4794 20.552 76.2234 19.832L77.7954 19.244C77.9714 19.74 78.2914 20.168 78.7554 20.528C79.2274 20.88 79.7754 21.152 80.3994 21.344C81.0314 21.536 81.6754 21.632 82.3314 21.632C83.0994 21.632 83.8154 21.504 84.4794 21.248C85.1434 20.992 85.6794 20.636 86.0874 20.18C86.4954 19.716 86.6994 19.172 86.6994 18.548C86.6994 17.916 86.4874 17.396 86.0634 16.988C85.6394 16.58 85.0914 16.26 84.4194 16.028C83.7554 15.788 83.0594 15.604 82.3314 15.476C81.1874 15.276 80.1594 15.004 79.2474 14.66C78.3434 14.316 77.6274 13.832 77.0994 13.208C76.5714 12.576 76.3074 11.744 76.3074 10.712C76.3074 9.744 76.5874 8.904 77.1474 8.192C77.7074 7.48 78.4434 6.928 79.3554 6.536C80.2754 6.144 81.2674 5.948 82.3314 5.948C83.2034 5.948 84.0554 6.084 84.8874 6.356C85.7194 6.628 86.4514 7.024 87.0834 7.544C87.7234 8.064 88.1834 8.7 88.4634 9.452L86.8674 10.028C86.6914 9.524 86.3674 9.096 85.8954 8.744C85.4314 8.384 84.8874 8.112 84.2634 7.928C83.6394 7.736 82.9954 7.64 82.3314 7.64C81.5714 7.632 80.8594 7.76 80.1954 8.024C79.5394 8.28 79.0074 8.64 78.5994 9.104C78.1914 9.56 77.9874 10.096 77.9874 10.712C77.9874 11.432 78.1754 11.988 78.5514 12.38C78.9354 12.764 79.4554 13.052 80.1114 13.244C80.7674 13.436 81.5074 13.608 82.3314 13.76C83.4034 13.944 84.3994 14.232 85.3194 14.624C86.2394 15.008 86.9794 15.524 87.5394 16.172C88.0994 16.812 88.3794 17.604 88.3794 18.548C88.3794 19.508 88.0994 20.348 87.5394 21.068C86.9794 21.78 86.2394 22.332 85.3194 22.724C84.4074 23.116 83.4114 23.312 82.3314 23.312ZM101.776 6.2H103.456V23H101.776V14.84H92.9559V23H91.2759V6.2H92.9559V13.16H101.776V6.2ZM117.878 23V6.2H123.254C124.15 6.2 124.958 6.42 125.678 6.86C126.398 7.292 126.97 7.88 127.394 8.624C127.826 9.36 128.042 10.188 128.042 11.108C128.042 12.036 127.822 12.872 127.382 13.616C126.95 14.36 126.37 14.948 125.642 15.38C124.922 15.812 124.126 16.028 123.254 16.028H119.558V23H117.878ZM119.558 14.348H123.122C123.714 14.348 124.254 14.204 124.742 13.916C125.238 13.62 125.63 13.224 125.918 12.728C126.214 12.224 126.362 11.656 126.362 11.024C126.362 10.392 126.214 9.828 125.918 9.332C125.63 8.828 125.238 8.432 124.742 8.144C124.254 7.848 123.714 7.7 123.122 7.7H119.558V14.348Z" fill="white"/>
<circle cx="111" cy="17.2941" r="6.88235" fill="#F24810"/>
<line x1="111" y1="3.70711" x2="102.707" y2="12" stroke="#F24810" stroke-linecap="round"/>
<line x1="0.5" y1="-0.5" x2="12.2279" y2="-0.5" transform="matrix(0.707107 0.707107 0.707107 -0.707107 111 3)" stroke="#F24810" stroke-linecap="round"/>
</svg>
