<svg width="24" height="24" viewBox="0 0 24 24" fill="none" xmlns="http://www.w3.org/2000/svg">
<g clip-path="url(#clip0_28544_4005)">
<path d="M23.4486 6.46709L23.4479 6.46674L16.5009 3.02354C15.5443 4.04625 13.8502 4.66999 11.9999 4.66999C10.1497 4.66999 8.45561 4.04625 7.49902 3.02354L0.554655 6.46541C0.503286 6.49218 0.484131 6.5539 0.50798 6.60304C0.50808 6.60325 0.508181 6.60345 0.508282 6.60366L2.65102 10.8929C2.65114 10.8931 2.65126 10.8934 2.65138 10.8936C2.67814 10.9455 2.74047 10.9648 2.78986 10.9404L2.7914 10.9396L4.91348 9.9011L23.4486 6.46709ZM23.4486 6.46709C23.493 6.48901 23.5157 6.54855 23.4901 6.59913L23.4891 6.60107L21.3404 10.8911L21.3402 10.8914C21.3127 10.9465 21.2531 10.9622 21.2071 10.9389L21.2071 10.9389L21.201 10.9359L19.0789 9.89735L23.4486 6.46709ZM19.0787 9.89727C18.3459 9.53793 17.4962 10.0773 17.4962 10.8862V20.4C17.4962 20.7876 17.1838 21.1 16.7962 21.1H7.19619C6.80858 21.1 6.49619 20.7876 6.49619 20.4V10.89C6.49619 10.0748 5.64435 9.54293 4.9139 9.90089L19.0787 9.89727Z" stroke="black"/>
</g>
<defs>
<clipPath id="clip0_28544_4005">
<rect width="24" height="24" fill="white"/>
</clipPath>
</defs>
</svg>
