<svg width="24" height="24" viewBox="0 0 24 24" fill="none" xmlns="http://www.w3.org/2000/svg">
<path d="M12 17.3H12.5V16.8V11.3H13.9V20.4C13.9 20.7876 13.5876 21.1 13.2 21.1H3.60003C3.21243 21.1 2.90003 20.7876 2.90003 20.4V11.3H4.30003V16.8V17.3H4.80003H12ZM3.82111 3.20978L3.82178 3.20877C3.94908 3.01673 4.16652 2.9 4.40253 2.9H19.5975C19.8324 2.9 20.0516 3.01596 20.1835 3.21098C20.1837 3.21132 20.184 3.21166 20.1842 3.212L23.3806 8.00849C23.3807 8.0086 23.3808 8.00871 23.3808 8.00882C23.6912 8.47829 23.3538 9.1 22.8 9.1H1.20378C0.644603 9.1 0.31051 8.47755 0.622309 8.00985L0.622359 8.00978L3.82111 3.20978ZM19.8 21.1C19.7462 21.1 19.7 21.0539 19.7 21V11.3H21.1V21C21.1 21.0539 21.0539 21.1 21 21.1H19.8Z" stroke="black"/>
</svg>
