<svg width="24" height="24" viewBox="0 0 24 24" fill="none" xmlns="http://www.w3.org/2000/svg">
<path d="M19.2 14.9H19.7V14.4V4.79999V4.29999H19.2H4.8H4.3V4.79999V14.4V14.9H4.8H19.2ZM0.6 18.5H9.15631C9.24097 18.7423 9.38306 18.9663 9.5571 19.1491C9.85437 19.4613 10.2888 19.7 10.8 19.7H13.08C13.5322 19.7 13.9593 19.5458 14.2806 19.2418C14.4925 19.0414 14.6451 18.7883 14.7302 18.5H23.4C23.4539 18.5 23.5 18.5461 23.5 18.6V19.2C23.5 20.2439 22.6439 21.1 21.6 21.1H2.4C1.35614 21.1 0.5 20.2439 0.5 19.2V18.6C0.5 18.5461 0.546143 18.5 0.6 18.5ZM19.8 2.89999C20.5139 2.89999 21.1 3.48614 21.1 4.19999V16.3H2.9V4.19999C2.9 3.48614 3.48614 2.89999 4.2 2.89999H19.8Z" stroke="black"/>
</svg>
