<svg width="24" height="24" viewBox="0 0 24 24" fill="none" xmlns="http://www.w3.org/2000/svg">
<path d="M9.12503 2.77031V1.89927L8.37287 2.33855C7.11446 3.07351 6.25003 4.42741 6.25003 6V11.5H5.00003V6C5.00003 2.96208 7.46211 0.5 10.5 0.5H13.5C16.538 0.5 19 2.96208 19 6V11.5H17.75V6C17.75 4.42741 16.8856 3.07351 15.6272 2.33855L14.875 1.89927V2.77031V11.5H13.625V2.25V1.75H13.125H10.875H10.375V2.25V11.5H9.12503V2.77031ZM3.50003 18V17.5H3.00003C2.321 17.5 1.83741 16.8323 2.0497 16.1837C2.04982 16.1833 2.04994 16.183 2.05006 16.1826L2.55057 14.6858C2.55062 14.6856 2.55067 14.6855 2.55071 14.6853C2.68897 14.2743 3.07054 14 3.5016 14H20.4938C20.9248 14 21.3063 14.2742 21.4446 14.6852C21.4447 14.6854 21.4447 14.6856 21.4448 14.6858L21.946 16.1847C22.1618 16.832 21.6798 17.5 21 17.5H20.5V18V23.25C20.5 23.3864 20.3864 23.5 20.25 23.5H18.75C18.6137 23.5 18.5 23.3864 18.5 23.25V18V17.5H18H6.00003H5.50003V18V23.25C5.50003 23.3864 5.38639 23.5 5.25003 23.5H3.75003C3.61368 23.5 3.50003 23.3864 3.50003 23.25V18Z" stroke="black"/>
</svg>
