<svg width="24" height="24" viewBox="0 0 24 24" fill="none" xmlns="http://www.w3.org/2000/svg">
<g clip-path="url(#clip0_28545_101)">
<path d="M2.57087 21.8458L2.10984 21.6523C1.93119 22.0779 1.44533 22.2809 1.02071 22.1048L1.0193 22.1042C0.594904 21.9298 0.391828 21.4457 0.5633 21.0215C1.48665 18.7569 5.76902 12.5 16 12.5C16.6428 12.5 17.1667 11.9761 17.1667 11.3333C17.1667 10.6905 16.6428 10.1667 16 10.1667C10.9251 10.1667 7.1969 11.5477 4.50019 13.2856C4.52588 9.16703 7.87543 5.83334 12 5.83334H15.3334C18.1603 5.83334 20.635 4.33215 22.0126 1.93679L22.014 1.93438C22.0624 1.84919 22.1248 1.83084 22.1668 1.83245C22.2065 1.83397 22.2627 1.85404 22.3021 1.94193L22.3021 1.94197C23.063 3.64004 23.5 5.73647 23.5 7.7625C23.5 14.7469 19.0396 20.3371 12.818 20.7888L12.8097 20.7894L12.8014 20.7903C9.64493 21.1258 7.23838 19.4938 5.969 17.7739L5.65333 17.3462L5.24573 17.6875C3.04022 19.534 2.19148 21.4564 2.10933 21.6535L2.57087 21.8458ZM2.57087 21.8458C2.62952 21.7051 3.34487 20.0712 5.18854 18.4003M2.57087 21.8458C2.28754 22.5208 1.51254 22.85 0.829206 22.5667C0.15004 22.2875 -0.17496 21.5125 0.10004 20.8333C1.08337 18.4208 5.52504 12 16 12C16.3667 12 16.6667 11.7 16.6667 11.3333C16.6667 10.9667 16.3667 10.6667 16 10.6667C10.8705 10.6667 7.16639 12.1032 4.5317 13.8629L5.18854 18.4003M5.18854 18.4003C5.18045 18.3894 5.17241 18.3786 5.16441 18.3677L5.56671 18.0708L5.88768 18.4542C5.88401 18.4573 5.88035 18.4604 5.87669 18.4634C7.29003 20.1402 9.72579 21.6201 12.8542 21.2875M5.18854 18.4003L12.8542 21.2875M12.8542 21.2875C19.3959 20.8125 24 14.9458 24 7.7625M12.8542 21.2875L24 7.7625M24 7.7625C24 5.67084 23.55 3.50417 22.7584 1.7375L24 7.7625Z" stroke="black"/>
</g>
<defs>
<clipPath id="clip0_28545_101">
<rect width="24" height="24" fill="white"/>
</clipPath>
</defs>
</svg>
