<svg width="144" height="29" viewBox="0 0 144 29" fill="none" xmlns="http://www.w3.org/2000/svg">
<path d="M19.32 14.6C19.32 16.04 19.016 17.36 18.408 18.56C17.8 19.744 16.944 20.736 15.84 21.536C14.752 22.336 13.496 22.864 12.072 23.12V26.24H8.16V23.12C6.752 22.864 5.496 22.336 4.392 21.536C3.304 20.736 2.456 19.736 1.848 18.536C1.24 17.336 0.936 16.024 0.936 14.6C0.936 12.952 1.328 11.472 2.112 10.16C2.912 8.832 4.008 7.792 5.4 7.04C6.808 6.288 8.384 5.912 10.128 5.912C11.872 5.912 13.44 6.288 14.832 7.04C16.224 7.792 17.32 8.832 18.12 10.16C18.92 11.472 19.32 12.952 19.32 14.6ZM11.904 19.712C12.976 19.376 13.824 18.76 14.448 17.864C15.072 16.952 15.384 15.864 15.384 14.6C15.384 13.56 15.152 12.632 14.688 11.816C14.24 11 13.616 10.368 12.816 9.92C12.016 9.456 11.12 9.224 10.128 9.224C9.136 9.224 8.24 9.456 7.44 9.92C6.64 10.368 6.008 11 5.544 11.816C5.096 12.632 4.872 13.56 4.872 14.6C4.872 15.864 5.176 16.944 5.784 17.84C6.408 18.736 7.248 19.36 8.304 19.712V16.256H11.904V19.712ZM34.986 10.088V23H31.434V21.464C30.938 22.024 30.346 22.456 29.658 22.76C28.97 23.048 28.226 23.192 27.426 23.192C25.73 23.192 24.386 22.704 23.394 21.728C22.402 20.752 21.906 19.304 21.906 17.384V10.088H25.65V16.832C25.65 18.912 26.522 19.952 28.266 19.952C29.162 19.952 29.882 19.664 30.426 19.088C30.97 18.496 31.242 17.624 31.242 16.472V10.088H34.986ZM38.4546 10.088H42.1986V23H38.4546V10.088ZM40.3266 8.288C39.6386 8.288 39.0786 8.088 38.6466 7.688C38.2146 7.288 37.9986 6.792 37.9986 6.2C37.9986 5.608 38.2146 5.112 38.6466 4.712C39.0786 4.312 39.6386 4.112 40.3266 4.112C41.0146 4.112 41.5746 4.304 42.0066 4.688C42.4386 5.072 42.6546 5.552 42.6546 6.128C42.6546 6.752 42.4386 7.272 42.0066 7.688C41.5746 8.088 41.0146 8.288 40.3266 8.288ZM51.9133 23.192C50.5373 23.192 49.2973 22.912 48.1933 22.352C47.1053 21.776 46.2493 20.984 45.6253 19.976C45.0173 18.968 44.7133 17.824 44.7133 16.544C44.7133 15.264 45.0173 14.12 45.6253 13.112C46.2493 12.104 47.1053 11.32 48.1933 10.76C49.2973 10.184 50.5373 9.896 51.9133 9.896C53.2733 9.896 54.4573 10.184 55.4653 10.76C56.4893 11.32 57.2333 12.128 57.6973 13.184L54.7933 14.744C54.1213 13.56 53.1533 12.968 51.8893 12.968C50.9133 12.968 50.1053 13.288 49.4653 13.928C48.8253 14.568 48.5053 15.44 48.5053 16.544C48.5053 17.648 48.8253 18.52 49.4653 19.16C50.1053 19.8 50.9133 20.12 51.8893 20.12C53.1693 20.12 54.1373 19.528 54.7933 18.344L57.6973 19.928C57.2333 20.952 56.4893 21.752 55.4653 22.328C54.4573 22.904 53.2733 23.192 51.9133 23.192ZM65.3033 17.936L63.5033 19.712V23H59.7593V5.192H63.5033V15.272L68.9753 10.088H73.4393L68.0633 15.56L73.9193 23H69.3833L65.3033 17.936ZM88.1839 23.288C86.8559 23.288 85.5679 23.112 84.3199 22.76C83.0879 22.392 82.0959 21.92 81.3439 21.344L82.6639 18.416C83.3839 18.944 84.2399 19.368 85.2319 19.688C86.2239 20.008 87.2159 20.168 88.2079 20.168C89.3119 20.168 90.1279 20.008 90.6559 19.688C91.1839 19.352 91.4479 18.912 91.4479 18.368C91.4479 17.968 91.2879 17.64 90.9679 17.384C90.6639 17.112 90.2639 16.896 89.7679 16.736C89.2879 16.576 88.6319 16.4 87.7999 16.208C86.5199 15.904 85.4719 15.6 84.6559 15.296C83.8399 14.992 83.1359 14.504 82.5439 13.832C81.9679 13.16 81.6799 12.264 81.6799 11.144C81.6799 10.168 81.9439 9.288 82.4719 8.504C82.9999 7.704 83.7919 7.072 84.8479 6.608C85.9199 6.144 87.2239 5.912 88.7599 5.912C89.8319 5.912 90.8799 6.04 91.9039 6.296C92.9279 6.552 93.8239 6.92 94.5919 7.4L93.3919 10.352C91.8399 9.472 90.2879 9.032 88.7359 9.032C87.6479 9.032 86.8399 9.208 86.3119 9.56C85.7999 9.912 85.5439 10.376 85.5439 10.952C85.5439 11.528 85.8399 11.96 86.4319 12.248C87.0399 12.52 87.9599 12.792 89.1919 13.064C90.4719 13.368 91.5199 13.672 92.3359 13.976C93.1519 14.28 93.8479 14.76 94.4239 15.416C95.0159 16.072 95.3119 16.96 95.3119 18.08C95.3119 19.04 95.0399 19.92 94.4959 20.72C93.9679 21.504 93.1679 22.128 92.0959 22.592C91.0239 23.056 89.7199 23.288 88.1839 23.288ZM105.553 9.896C107.153 9.896 108.441 10.376 109.417 11.336C110.409 12.296 110.905 13.72 110.905 15.608V23H107.161V16.184C107.161 15.16 106.937 14.4 106.489 13.904C106.041 13.392 105.393 13.136 104.545 13.136C103.601 13.136 102.849 13.432 102.289 14.024C101.729 14.6 101.449 15.464 101.449 16.616V23H97.7046V5.192H101.449V11.432C101.945 10.936 102.545 10.56 103.249 10.304C103.953 10.032 104.721 9.896 105.553 9.896ZM135.428 6.2C136.916 6.2 138.204 6.448 139.292 6.944C140.396 7.44 141.244 8.144 141.836 9.056C142.428 9.968 142.724 11.048 142.724 12.296C142.724 13.528 142.428 14.608 141.836 15.536C141.244 16.448 140.396 17.152 139.292 17.648C138.204 18.128 136.916 18.368 135.428 18.368H132.044V23H128.156V6.2H135.428ZM135.212 15.2C136.38 15.2 137.268 14.952 137.876 14.456C138.484 13.944 138.788 13.224 138.788 12.296C138.788 11.352 138.484 10.632 137.876 10.136C137.268 9.624 136.38 9.368 135.212 9.368H132.044V15.2H135.212Z" fill="black"/>
<circle cx="119.5" cy="16.5" r="6.5" fill="#F24810"/>
<line x1="119.5" y1="5.12132" x2="113.121" y2="11.5" stroke="#F24810" stroke-width="3" stroke-linecap="round"/>
<line x1="1.5" y1="-1.5" x2="10.5208" y2="-1.5" transform="matrix(0.707107 0.707107 0.707107 -0.707107 119.5 3)" stroke="#F24810" stroke-width="3" stroke-linecap="round"/>
</svg>

